HIERARCHY
ROOT Hips
{
	OFFSET -3.958830 18.904000 13.208200
	CHANNELS 6 Xposition Yposition Zposition Zrotation Yrotation Xrotation 
	JOINT LHipJoint
	{
		OFFSET 0.000000 0.000000 0.000000
		CHANNELS 3 Zrotation Yrotation Xrotation
		JOINT LeftUpLeg
		{
			OFFSET 1.800000 -1.400000 0.085000
			CHANNELS 3 Zrotation Yrotation Xrotation
			JOINT LeftLeg
			{
				OFFSET 2.215000 -6.000000 0.000000
				CHANNELS 3 Zrotation Yrotation Xrotation
				JOINT LeftFoot
				{
					OFFSET 2.500000 -6.900000 0.000000
					CHANNELS 3 Zrotation Yrotation Xrotation
					JOINT LeftToeBase
					{
						OFFSET 0.200000 -0.500000 1.950000
						CHANNELS 3 Zrotation Yrotation Xrotation
						End Site
						{
							OFFSET 0.000000 0.000000 0.000000
						}
					}
				}
			}
		}
	}
	JOINT RHipJoint
	{
		OFFSET 0.000000 0.000000 0.000000
		CHANNELS 3 Zrotation Yrotation Xrotation
		JOINT RightUpLeg
		{
			OFFSET -1.800000 -1.400000 0.085000
			CHANNELS 3 Zrotation Yrotation Xrotation
			JOINT RightLeg
			{
				OFFSET -2.215000 -6.000000 0.000000
				CHANNELS 3 Zrotation Yrotation Xrotation
				JOINT RightFoot
				{
					OFFSET -2.500000 -6.900000 0.000000
					CHANNELS 3 Zrotation Yrotation Xrotation
					JOINT RightToeBase
					{
						OFFSET -0.200000 -0.500000 1.950000
						CHANNELS 3 Zrotation Yrotation Xrotation
						End Site
						{
							OFFSET 0.000000 0.000000 0.000000
						}
					}
				}
			}
		}
	}
	JOINT LowerBack
	{
		OFFSET 0.000000 0.000000 0.000000
		CHANNELS 3 Zrotation Yrotation Xrotation
		JOINT Spine
		{
			OFFSET -0.087000 1.940000 -0.288900
			CHANNELS 3 Zrotation Yrotation Xrotation
			JOINT Spine1
			{
				OFFSET 0.000000 1.950000 0.060000
				CHANNELS 3 Zrotation Yrotation Xrotation
				JOINT Neck
				{
					OFFSET 0.000000 0.000000 0.000000
					CHANNELS 3 Zrotation Yrotation Xrotation
					JOINT Neck1
					{
						OFFSET 0.000000 1.600000 0.340000
						CHANNELS 3 Zrotation Yrotation Xrotation
						JOINT Head
						{
							OFFSET 0.000000 1.667000 -0.240000
							CHANNELS 3 Zrotation Yrotation Xrotation
							End Site
							{
								OFFSET 0.000000 0.000000 0.000000
							}
						}
					}
				}
				JOINT LeftShoulder
				{
					OFFSET 0.000000 0.000000 0.000000
					CHANNELS 3 Zrotation Yrotation Xrotation
					JOINT LeftArm
					{
						OFFSET 2.700000 1.550000 -0.730000
						CHANNELS 3 Zrotation Yrotation Xrotation
						JOINT LeftForeArm
						{
							OFFSET 5.450000 0.000000 0.000000
							CHANNELS 3 Zrotation Yrotation Xrotation
							JOINT LeftHand
							{
								OFFSET 3.450000 0.000000 0.000000
								CHANNELS 3 Zrotation Yrotation Xrotation
								JOINT LeftHandIndex1
								{
									OFFSET 0.750000 0.000000 0.000000
									CHANNELS 3 Zrotation Yrotation Xrotation
									End Site
									{
										OFFSET 0.000000 0.000000 0.000000
									}
								}
							}
						}
					}
				}
				JOINT RightShoulder
				{
					OFFSET 0.000000 0.000000 0.000000
					CHANNELS 3 Zrotation Yrotation Xrotation
					JOINT RightArm
					{
						OFFSET -2.700000 1.550000 -0.730000
						CHANNELS 3 Zrotation Yrotation Xrotation
						JOINT RightForeArm
						{
							OFFSET -5.450000 0.000000 0.000000
							CHANNELS 3 Zrotation Yrotation Xrotation
							JOINT RightHand
							{
								OFFSET -3.450000 0.000000 0.000000
								CHANNELS 3 Zrotation Yrotation Xrotation
								JOINT RightHandIndex1
								{
									OFFSET -0.750000 0.000000 0.000000
									CHANNELS 3 Zrotation Yrotation Xrotation
									End Site
									{
										OFFSET 0.000000 0.000000 0.000000
									}
								}
							}
						}
					}
				}
			}
		}
	}
}
MOTION
Frames: 13
Frame Time: 0.016667
0.818040 17.607210 -0.689570 -7.516583 -9.177417 -1.461304 -15.123901 12.718888 1.957051 3.771292 0.119408 0.370531 -6.010831 7.460278 19.720449 -0.163582 5.186656 2.797714 0.824680 0.531060 0.632970 18.767541 -8.045729 6.015877 4.617372 18.693558 -52.308384 -4.835752 -8.090527 74.127029 -2.085825 -10.581794 0.895179 0.258500 -0.159260 0.175890 -4.332621 -3.229856 -8.535328 17.035386 -13.074137 29.892351 -9.529010 -8.919776 -4.428642 1.560608 -11.765862 -3.387959 -28.366359 14.908102 38.716824 -2.764340 3.277630 -21.331310 -23.035377 14.319003 -4.973196 -51.409595 16.476735 -15.494696 -16.282482 -10.406201 -2.025800 -3.412420 2.728344 0.777400 -0.255580 0.310850 0.238690 18.996340 -9.844988 -0.487367 45.288437 -16.729452 -16.114408 33.146925 11.759575 -0.823078 2.207190 -1.228021 -0.034690 0.220510 -0.265330 -0.224930 
0.808700 17.610060 -0.608660 -7.164856 -9.708366 -1.438840 -15.113984 13.016947 2.195789 3.536298 0.226741 1.157892 -6.237192 7.399784 18.790019 -0.097239 5.159573 2.815548 0.792150 0.498940 0.616650 18.679585 -8.423566 5.513169 7.113970 15.882417 -47.582690 -6.199981 -5.242507 62.793462 -1.563048 -8.390882 1.528131 0.215340 -0.167300 0.177620 -4.193819 -3.397604 -8.380693 16.806062 -13.107773 28.891052 -8.898467 -9.160939 -4.089930 1.970031 -11.108480 -3.845240 -27.272695 14.250081 40.696180 -2.873880 3.562810 -19.734570 -21.771733 14.504842 -4.623252 -52.106493 17.861109 -16.205974 -15.187923 -9.219749 -2.201686 -3.428322 2.710653 0.763290 -0.254120 0.315630 0.237840 17.176675 -10.303597 -0.009268 45.398011 -18.519695 -17.122146 35.442657 11.888826 -0.976376 2.210250 -1.245494 -0.018460 0.186470 -0.272830 -0.217160 
0.790600 17.595710 -0.519380 -6.516788 -10.283581 -1.311323 -15.103996 13.330734 2.467469 3.143030 0.341729 1.824079 -6.704322 7.432113 17.957312 -0.029942 5.180022 2.823801 0.740780 0.446140 0.585590 18.582631 -8.853799 4.937074 8.671525 12.754270 -42.810995 -6.568617 -3.685684 51.162355 -1.067915 -6.225877 2.214488 0.168740 -0.150930 0.175410 -4.034965 -3.550671 -8.220237 16.000383 -12.833912 27.284460 -8.161073 -9.325015 -3.489746 2.303215 -10.240261 -4.325428 -25.680538 13.537977 42.857578 -2.529300 3.815830 -17.455330 -20.261252 14.745938 -4.138988 -52.760892 19.460601 -17.031994 -14.022118 -8.702989 -2.288898 -3.461338 2.680324 0.743670 -0.237720 0.306200 0.236450 15.302156 -10.898581 0.483948 45.545178 -20.596138 -18.163165 37.719340 12.006467 -1.163462 2.202678 -1.252076 -0.017260 0.166690 -0.267070 -0.208150 
0.768400 17.567580 -0.428140 -5.562671 -10.458295 -0.937364 -15.104431 13.609430 2.701314 2.332119 0.442760 2.059433 -6.726252 7.350868 17.493255 0.010830 5.149096 2.848385 0.701310 0.403950 0.565550 18.492523 -9.248336 4.398250 8.973986 9.839191 -38.850014 -5.711974 -3.190398 40.990350 -0.674776 -4.460302 2.823885 0.137430 -0.132080 0.161120 -3.874997 -3.693892 -8.069821 14.735854 -12.451638 24.811985 -7.240336 -9.555980 -2.202952 2.475158 -9.194060 -4.801905 -23.544029 12.520317 44.693357 -1.992730 3.882740 -14.833100 -18.489477 14.700128 -3.485523 -53.705758 20.657571 -17.740645 -12.628284 -8.003931 -2.342431 -3.503576 2.648989 0.714540 -0.213410 0.280890 0.234900 13.535408 -11.314161 0.908659 46.110642 -22.224355 -19.156065 39.371121 12.354496 -1.297542 2.191399 -1.263654 -0.023200 0.150690 -0.268430 -0.205780 
0.743330 17.538000 -0.340060 -4.605000 -10.743294 -0.715430 -15.113121 13.799981 2.878904 1.464787 0.565319 2.459812 -6.557801 7.269754 17.298579 0.057749 5.126363 2.868380 0.683160 0.375830 0.567790 18.421896 -9.544570 3.994687 8.512169 7.716646 -35.541454 -4.112608 -3.219747 33.747677 -0.450772 -3.352371 3.225070 0.109470 -0.135110 0.157620 -3.738509 -3.774209 -7.980109 13.469962 -12.057046 22.649954 -6.604634 -9.705533 -0.950068 2.718296 -8.018260 -5.299708 -21.168287 11.230800 46.675447 -1.795970 3.740080 -12.758280 -16.749040 14.543867 -2.769493 -54.039273 21.908330 -18.397123 -12.001601 -7.801969 -2.358437 -3.509938 2.639067 0.701470 -0.205600 0.277170 0.239690 11.614037 -11.757246 1.375381 47.511261 -23.579961 -20.282580 40.587707 12.827301 -1.338362 2.194497 -1.272993 -0.019500 0.125960 -0.285520 -0.206650 
0.730430 17.517560 -0.267380 -4.036950 -11.673547 -0.493747 -15.114348 13.899761 2.998729 0.670534 0.659830 2.737330 -6.333746 7.220416 17.397049 0.102624 5.097981 2.877235 0.651970 0.334500 0.561820 18.379881 -9.731888 3.777445 8.144581 6.504606 -33.035347 -2.681180 -3.275323 28.951865 -0.323922 -2.723965 3.459211 0.073080 -0.155390 0.144980 -3.651796 -3.770763 -7.970317 12.821873 -11.515519 21.238308 -6.044104 -9.416960 -0.421714 3.048420 -6.776638 -5.955763 -18.805669 9.705559 49.109053 -1.532850 3.146980 -10.506050 -15.405763 14.182351 -2.097874 -54.001514 23.034993 -18.906446 -11.736224 -8.056747 -2.325857 -3.491428 2.638533 0.694410 -0.212710 0.274840 0.230250 9.801072 -11.964472 2.069982 49.033365 -25.034590 -21.427684 41.580111 13.831603 -1.161252 2.208728 -1.277959 -0.016450 0.091680 -0.293910 -0.210700 
0.724020 17.504510 -0.205910 -3.877093 -12.918650 -0.038141 -15.092460 13.905102 3.055460 0.138453 0.648404 2.661415 -6.378727 7.277988 17.752724 0.133417 5.114924 2.881007 0.596300 0.258710 0.542470 18.380959 -9.845274 3.695188 8.185942 5.936729 -31.441503 -1.825843 -3.216882 25.643669 -0.227685 -2.356388 3.612512 0.027200 -0.147270 0.125620 -3.665717 -3.645963 -7.980572 13.010312 -11.058010 19.944267 -5.754366 -9.022867 -0.151509 3.267632 -5.604388 -6.580049 -16.433105 8.099579 50.963395 -1.515790 2.438820 -7.527060 -14.410190 13.606166 -1.407302 -53.315022 24.170332 -19.226867 -12.556790 -8.463153 -2.316303 -3.486318 2.633492 0.677730 -0.198660 0.244610 0.214270 8.417745 -11.992032 2.719893 50.532227 -26.238166 -22.446922 41.751669 15.021370 -0.904874 2.220227 -1.272095 -0.032630 0.071280 -0.283710 -0.217830 
0.722020 17.504090 -0.160750 -3.817113 -14.619859 0.464000 -15.069079 13.856099 3.088073 -0.465191 0.595302 2.298031 -6.537555 7.372470 18.343600 0.160768 5.129404 2.887203 0.568670 0.210590 0.549330 18.394066 -9.916638 3.695325 8.474909 5.769285 -30.626454 -1.437280 -3.118666 23.725115 -0.179752 -2.162702 3.702345 -0.006360 -0.150660 0.115420 -3.698931 -3.452899 -8.019716 13.249288 -10.414072 19.043667 -5.574160 -8.389012 0.150425 3.538688 -4.248820 -7.065684 -13.616296 6.089475 52.457331 -2.056320 1.733460 -5.333810 -13.543956 12.931170 -0.917751 -52.556883 24.529253 -19.132999 -12.583971 -8.441970 -2.264547 -3.480885 2.624939 0.667500 -0.188870 0.231220 0.209670 7.019301 -12.070226 3.305950 52.376069 -27.064598 -23.490518 41.480213 16.082978 -0.689715 2.233705 -1.266221 -0.039430 0.054240 -0.292710 -0.226550 
0.718920 17.514120 -0.119150 -3.729835 -16.030584 0.753400 -15.052429 13.819573 3.113729 -0.895555 0.530675 2.047304 -6.646991 7.465919 18.941584 0.159647 5.168308 2.874926 0.537680 0.167990 0.544470 18.401977 -9.977781 3.688696 8.631742 5.592653 -30.012696 -1.206332 -3.060480 22.405347 -0.145185 -2.040228 3.756904 -0.026740 -0.151110 0.099020 -3.718060 -3.305009 -8.046411 13.295179 -9.997865 18.579856 -5.422306 -7.987619 0.325086 3.662807 -3.167685 -7.353885 -11.381969 4.393390 53.288653 -2.157970 0.910120 -4.418980 -12.823095 12.451276 -0.616549 -51.899182 24.518428 -18.841331 -11.509412 -8.336376 -2.188685 -3.489670 2.595477 0.671870 -0.185620 0.217410 0.193770 6.072672 -12.249485 3.682484 53.770227 -27.705574 -24.338656 41.017623 17.098067 -0.470442 2.231694 -1.240225 -0.058310 0.056320 -0.280910 -0.239110 
0.718320 17.532630 -0.082970 -3.660060 -16.958977 0.879616 -15.029184 13.792633 3.131594 -1.146021 0.418000 1.820621 -6.697269 7.549606 19.600685 0.162539 5.222525 2.858062 0.516080 0.130670 0.542860 18.413499 -10.048847 3.673038 8.610052 5.381768 -29.443790 -0.882302 -3.073068 21.359180 -0.124766 -1.954608 3.796100 -0.048740 -0.145220 0.094160 -3.755511 -3.162386 -8.060931 13.384338 -9.859088 18.365892 -5.315021 -7.839436 0.336356 3.606018 -2.346812 -7.669266 -9.687612 3.022129 54.150644 -1.702540 -0.136760 -3.904150 -12.099205 11.923199 -0.221137 -51.261723 24.423425 -18.579004 -10.818385 -8.662392 -2.117766 -3.492820 2.576647 0.680880 -0.185440 0.209820 0.181220 5.475210 -12.214279 3.906824 54.618542 -27.579000 -24.656239 39.781870 18.405779 -0.071118 2.231103 -1.214758 -0.068070 0.062530 -0.266920 -0.246040 
0.721290 17.555600 -0.051400 -3.778909 -17.823848 0.968296 -15.002063 13.770533 3.132147 -1.090954 0.316042 1.753241 -6.743285 7.617518 20.040700 0.168771 5.253640 2.835610 0.505480 0.116960 0.543260 18.432141 -10.103837 3.665316 8.669582 5.237217 -28.924976 -0.604585 -3.097602 20.579960 -0.117095 -1.893656 3.817234 -0.062050 -0.161990 0.088690 -3.813600 -3.040568 -8.060169 13.761461 -9.960317 18.198290 -5.404616 -7.891133 0.562553 3.578577 -1.823563 -8.042253 -8.639283 1.981975 55.064108 -1.541720 -1.001140 -3.784340 -11.376235 11.391592 0.196979 -51.005177 24.546646 -18.648458 -9.777956 -9.452698 -2.039325 -3.480443 2.570947 0.687420 -0.198200 0.214620 0.165090 4.791749 -12.026462 4.190595 55.438447 -27.367788 -25.042623 39.175599 19.744292 0.331198 2.230907 -1.204471 -0.063420 0.057730 -0.257460 -0.250940 
0.721700 17.578080 -0.030370 -3.984289 -18.481115 1.116923 -14.979508 13.757122 3.102546 -0.801027 0.189435 1.636995 -6.562328 7.617494 20.475600 0.151448 5.291318 2.820860 0.491300 0.091820 0.535190 18.450277 -10.139281 3.668081 8.682839 5.189084 -28.548149 -0.061512 -3.195105 19.980899 -0.110256 -1.869300 3.825107 -0.070750 -0.156760 0.087930 -3.870392 -2.947699 -8.037521 14.131403 -10.041616 17.895944 -5.435774 -7.948653 1.081375 3.468710 -1.427400 -8.328251 -7.826668 1.220424 55.385047 -1.241950 -1.712980 -3.614830 -10.777221 10.758108 0.581458 -50.549766 24.297100 -18.553642 -9.112903 -10.449507 -1.973413 -3.474369 2.574315 0.698830 -0.198540 0.208140 0.157380 4.391547 -11.714997 4.417397 55.964052 -27.123591 -25.399005 38.970172 21.549729 0.873489 2.208553 -1.213283 -0.074830 0.062560 -0.241480 -0.257530 
0.722570 17.600260 -0.017470 -4.012343 -18.905878 1.244243 -14.966268 13.761747 3.079203 -0.552493 0.119785 1.627811 -6.271088 7.544281 20.635532 0.147822 5.276042 2.821348 0.486040 0.088150 0.531640 18.458471 -10.175696 3.649039 8.532391 5.017280 -28.169414 0.410709 -3.249083 19.133318 -0.102347 -1.817612 3.843529 -0.075930 -0.162010 0.085580 -3.899066 -2.900022 -8.008914 14.202734 -10.169535 17.592783 -5.554906 -8.122506 1.705288 3.396321 -1.046379 -8.602150 -7.114617 0.622405 55.585112 -0.927130 -2.215220 -3.562160 -10.155128 10.165139 0.917202 -49.870972 23.718510 -18.292262 -8.769761 -11.423106 -1.878020 -3.456136 2.594897 0.698640 -0.203100 0.209260 0.151140 3.918337 -11.511766 4.705755 56.831853 -27.233287 -26.092674 39.497135 23.793258 1.562785 2.185535 -1.237378 -0.071180 0.059430 -0.237690 -0.256950 
